<svg width="50" height="50" viewBox="0 0 50 50" fill="none" xmlns="http://www.w3.org/2000/svg">
<path d="M34.0375 1.44974C32.1045 -0.483248 28.7396 -0.483248 26.8066 1.44974L1.49618 26.7602C0.538124 27.7195 0 29.0198 0 30.3756C0 31.7314 0.538124 33.0317 1.49618 33.991L15.9604 48.4552C16.9269 49.4217 18.2104 49.9536 19.5758 49.9536C20.9412 49.9536 22.2247 49.4217 23.1912 48.4552L48.5017 23.1448C49.4682 22.1783 50 20.8947 50 19.5294C50 18.164 49.4682 16.8805 48.5017 15.914L34.0375 1.44974V1.44974ZM19.5758 44.8398V47.3967V44.8398L5.11159 30.3756L30.422 5.06516L44.8863 19.5294L19.5758 44.8398V44.8398Z" fill="#00C987"/>
<path d="M17.3286 35.18C18.7407 35.18 19.8855 34.0352 19.8855 32.6231C19.8855 31.211 18.7407 30.0662 17.3286 30.0662C15.9165 30.0662 14.7717 31.211 14.7717 32.6231C14.7717 34.0352 15.9165 35.18 17.3286 35.18Z" fill="#00C987"/>
<path d="M34.4772 49.7721L30.8618 46.1567L46.203 30.8155L49.8184 34.4335L34.4772 49.7721Z" fill="#00C987"/>
<path d="M15.5207 0.133057L19.1361 3.74847L3.79485 19.0897L0.179443 15.4717L15.5207 0.133057Z" fill="#00C987"/>
</svg>
