<svg width="50" height="48" viewBox="0 0 50 48" fill="none" xmlns="http://www.w3.org/2000/svg">
<path d="M42.87 2.4275C42.4245 1.68881 41.7962 1.07738 41.0456 0.652178C40.2951 0.226981 39.4476 0.00236657 38.585 0H11.415C9.67 0 8.0275 0.93 7.13 2.4275L0.357501 13.7125C0.12314 14.101 -0.000487412 14.5463 1.4442e-06 15C0.00998572 17.413 0.898736 19.7398 2.5 21.545V42.5C2.5 45.2575 4.7425 47.5 7.5 47.5H42.5C45.2575 47.5 47.5 45.2575 47.5 42.5V21.545C49.1013 19.7398 49.99 17.413 50 15C50.0005 14.5463 49.8769 14.101 49.6425 13.7125L42.87 2.4275ZM44.96 15.6275C44.8057 16.8345 44.2171 17.9441 43.3043 18.7488C42.3915 19.5535 41.2169 19.9983 40 20C37.2425 20 35 17.7575 35 15C35 14.83 34.9375 14.68 34.9025 14.52L34.9525 14.51L33.05 5H38.585L44.96 15.6275V15.6275ZM22.0475 5H27.95L29.9825 15.1625C29.895 17.8425 27.7 20 25 20C22.3 20 20.105 17.8425 20.0175 15.1625L22.0475 5ZM11.415 5H16.95L15.05 14.51L15.1 14.52C15.0625 14.68 15 14.83 15 15C15 17.7575 12.7575 20 10 20C8.78313 19.9983 7.60852 19.5535 6.6957 18.7488C5.78288 17.9441 5.19431 16.8345 5.04 15.6275L11.415 5ZM20 42.5V35H30V42.5H20ZM35 42.5V35C35 32.2425 32.7575 30 30 30H20C17.2425 30 15 32.2425 15 35V42.5H7.5V24.645C8.3025 24.8525 9.13 25 10 25C11.4195 25.0007 12.8229 24.6985 14.1163 24.1135C15.4096 23.5284 16.5632 22.6741 17.5 21.6075C19.3325 23.6875 22.0175 25 25 25C27.9825 25 30.6675 23.6875 32.5 21.6075C33.4368 22.6741 34.5904 23.5284 35.8837 24.1135C37.1771 24.6985 38.5805 25.0007 40 25C40.87 25 41.6975 24.8525 42.5 24.645V42.5H35Z" fill="#00C987"/>
</svg>
