<svg width="50" height="50" viewBox="0 0 50 50" fill="none" xmlns="http://www.w3.org/2000/svg">
<path d="M33.3333 0.476191C31.25 0.476191 29.5833 2.38095 29.5833 4.7619C29.5833 7.14286 31.25 9.04762 33.3333 9.04762C35.4167 9.04762 37.0833 7.14286 37.0833 4.7619C37.0833 2.38095 35.4167 0.476191 33.3333 0.476191ZM25.8333 7.38095C24.8542 7.38095 23.9583 7.83333 23.3333 8.57143L15.625 17.3571C14.9792 18.0952 14.5833 19.0476 14.5833 20.2381C14.5833 21.7381 15.2708 23 16.3542 23.7381L23.3333 28.5714V40.4762H27.0833V25L22.3958 21.0714L27.2292 15.4762L30.8333 21.4286H39.5833V17.1429H32.9167L28.875 9.35714C28.2708 8.16667 27.0833 7.38095 25.8333 7.38095V7.38095ZM20.8333 4.7619H6.25C5.10417 4.7619 4.16667 3.69048 4.16667 2.38095C4.16667 1.07143 5.10417 0 6.25 0H26.6458C26.2083 0.809524 25.8542 1.69048 25.6667 2.64286C23.875 2.69048 22.1875 3.45238 20.8333 4.7619V4.7619ZM10.4167 26.1905C4.66667 26.1905 0 31.5238 0 38.0952C0 44.6667 4.66667 50 10.4167 50C16.1667 50 20.8333 44.6667 20.8333 38.0952C20.8333 31.5238 16.1667 26.1905 10.4167 26.1905ZM10.4167 46.4286C6.39583 46.4286 3.125 42.6905 3.125 38.0952C3.125 33.5 6.39583 29.7619 10.4167 29.7619C14.4375 29.7619 17.7083 33.5 17.7083 38.0952C17.7083 42.6905 14.4375 46.4286 10.4167 46.4286ZM39.5833 26.1905C33.8333 26.1905 29.1667 31.5238 29.1667 38.0952C29.1667 44.6667 33.8333 50 39.5833 50C45.3333 50 50 44.6667 50 38.0952C50 31.5238 45.3333 26.1905 39.5833 26.1905ZM39.5833 46.4286C35.5625 46.4286 32.2917 42.6905 32.2917 38.0952C32.2917 33.5 35.5625 29.7619 39.5833 29.7619C43.6042 29.7619 46.875 33.5 46.875 38.0952C46.875 42.6905 43.6042 46.4286 39.5833 46.4286ZM11.0833 23.8095H2.08333C0.933333 23.8095 0 22.7381 0 21.4286C0 20.119 0.933333 19.0476 2.08333 19.0476H10.5208C10.4792 19.4286 10.4167 19.8333 10.4167 20.2381C10.4167 21.5 10.6667 22.7143 11.0833 23.8095ZM12.5 14.2857H4.16667C3.02083 14.2857 2.08333 13.2143 2.08333 11.9048C2.08333 10.5952 3.02083 9.52381 4.16667 9.52381H16.6042L12.6875 13.9762C12.6042 14.0714 12.5 14.1905 12.5 14.2857Z" fill="#00C987"/>
</svg>
