<svg width="48" height="44" viewBox="0 0 48 44" fill="none" xmlns="http://www.w3.org/2000/svg">
<path d="M46.3789 20.5305C45.7703 16.3164 45.6727 14.8578 45.7063 14.393C45.7844 14.2164 46.0281 13.8492 46.1945 13.6008C46.7492 12.7727 47.4375 11.743 47.4375 10.4719C47.4375 5.02266 40.1852 0.125 30.593 0.125C22.6164 0.125 14.3836 2.98906 8.58203 6.22891C7.46387 6.77962 6.40185 7.43766 5.41094 8.19375C5.399 8.20227 5.38675 8.21035 5.37422 8.21797C5.37188 8.21953 5.37266 8.22266 5.37109 8.225C2.39297 10.5227 0.5625 13.4391 0.5625 16.0891C0.5625 17.3602 1.25078 18.3898 1.80625 19.218C1.97422 19.4687 2.22109 19.8398 2.29609 20.0148C2.33125 20.4391 2.23984 21.8813 1.62187 26.1492C1.58047 26.4406 1.54531 26.6766 1.52266 26.8398C0.392188 35.1242 0.594531 39.0781 2.27344 41.4336C3.71953 43.4602 6.025 43.875 9.04297 43.875C10.0914 43.875 11.2797 43.8258 12.5375 43.7742C14.1141 43.7086 15.8992 43.6352 17.8766 43.6352C19.8539 43.6352 21.6406 43.7086 23.2156 43.7742C24.4742 43.8266 25.6617 43.875 26.7102 43.875C27.2703 43.875 27.7961 43.8539 28.3055 43.8172L28.3031 43.8258C28.457 43.8258 28.6313 43.807 28.8156 43.7805C30.1844 43.6367 31.3531 43.2992 32.3047 42.6141C37.3766 40.3703 44.6406 35.6562 45.7273 34.1312C47.407 31.7766 47.6102 29.5062 46.4781 21.2227C46.4547 21.0594 46.4195 20.8219 46.3789 20.5305V20.5305ZM32.8367 27.1094C34.6539 40.407 32.9906 42.1906 26.7102 42.1906C24.4063 42.1906 21.4797 41.95 17.8766 41.95C14.2734 41.95 11.3477 42.1906 9.04297 42.1906C2.76406 42.1906 1.10078 40.4055 2.91641 27.1094C3.07813 25.9367 3.87891 20.7969 3.675 19.6336C3.49922 18.6344 1.975 17.3008 1.975 16.0891C1.975 11.7117 9.09453 5.74141 17.8766 5.74141C26.6586 5.74141 33.7781 11.7125 33.7781 16.0891C33.7781 17.3008 32.2539 18.6344 32.0781 19.6336C31.8734 20.7969 32.6758 25.9367 32.8367 27.1094" fill="#00C987"/>
</svg>
